# xmcd CD database file
#
# Track frame offsets:
#	150
#	16041
#	29471
#	46937
#	57203
#	68800
#	84820
#	100244
#	120011
#	134017
#	147650
#	159683
#	173587
#	192123
#	212150
#	225123
#	240883
#	251814
#	273802
#	287949
#	301032
#
# Disc length: 4182 seconds
#
# Revision: 1
# Processed by: cddbd v1.5.2PL0 Copyright (c) Steve Scherf et al.
# Submitted via: CDex 1.70beta2
#
DISCID=0f105415
DTITLE=ZZ Top - THE VERY BADDEST OF ZZ TOP [Disc 1]
DYEAR=2014
DGENRE=Blues
TTITLE0=Gimme All Your Lovin' 
TTITLE1=Sharp Dressed Man
TTITLE2=La Grange (2005 Remastered Version)
TTITLE3=Tush
TTITLE4=(Somebody Else Been) Shaking Your Tree
TTITLE5=Francine
TTITLE6=Beer Drinkers and Hell Raisers (Remastered Version)
TTITLE7=It's Only Love
TTITLE8=Arrested For Driving While Blind
TTITLE9=I Thank You
TTITLE10=Cheap Sunglasses
TTITLE11=Tube Snake Boogie
TTITLE12=Pearl Necklace (Remastered Version)
TTITLE13=Just God Paid
TTITLE14=Waitin' For The Bus
TTITLE15=Jesus Just Left Chicago
TTITLE16=Heard It On The X (Remastered Version)
TTITLE17=I'm Bad, I'm Nationwide
TTITLE18=Dust My Broom
TTITLE19=Velcro Fly
TTITLE20=Party On The Patio
EXTD=YEAR: 2014
EXTT0=
EXTT1=
EXTT2=
EXTT3=
EXTT4=
EXTT5=
EXTT6=
EXTT7=
EXTT8=
EXTT9=
EXTT10=
EXTT11=
EXTT12=
EXTT13=
EXTT14=
EXTT15=
EXTT16=
EXTT17=
EXTT18=
EXTT19=
EXTT20=
PLAYORDER=
